<svg id="arrow.2.circlepath" xmlns="http://www.w3.org/2000/svg" width="3300" height="2200" viewBox="0 0 3300 2200">
  <g id="Notes">
    <rect id="artboard" width="3300" height="2200" fill="#fff"/>
    <path id="直线_1" data-name="直线 1" d="M2773,.25H0v-.5H2773Z" transform="translate(263 292)"/>
    <text id="Weight_Scale_Variations" data-name="Weight/Scale Variations" transform="translate(263 322)" font-size="13" font-family="SF Pro"><tspan x="0" y="0">Weight/Scale Variations</tspan></text>
    <text id="Ultralight" transform="translate(559.711 322)" font-size="13" font-family="SF Pro"><tspan x="-27.876" y="0">Ultralight</tspan></text>
    <text id="Thin" transform="translate(856.422 322)" font-size="13" font-family="SF Pro"><tspan x="-13.19" y="0">Thin</tspan></text>
    <text id="Light" transform="translate(1153.13 322)" font-size="13" font-family="SF Pro"><tspan x="-15.253" y="0">Light</tspan></text>
    <text id="Regular" transform="translate(1449.84 322)" font-size="13" font-family="SF Pro"><tspan x="-23.058" y="0">Regular</tspan></text>
    <text id="Medium" transform="translate(1746.56 322)" font-size="13" font-family="SF Pro"><tspan x="-24.213" y="0">Medium</tspan></text>
    <text id="Semibold" transform="translate(2043.27 322)" font-size="13" font-family="SF Pro"><tspan x="-28.282" y="0">Semibold</tspan></text>
    <text id="Bold" transform="translate(2339.98 322)" font-size="13" font-family="SF Pro"><tspan x="-13.597" y="0">Bold</tspan></text>
    <text id="Heavy" transform="translate(2636.69 322)" font-size="13" font-family="SF Pro"><tspan x="-18.859" y="0">Heavy</tspan></text>
    <text id="Black" transform="translate(2933.4 322)" font-size="13" font-family="SF Pro"><tspan x="-16.479" y="0">Black</tspan></text>
    <path id="直线_2" data-name="直线 2" d="M2773,.25H0v-.5H2773Z" transform="translate(263 1903)"/>
    <g id="组_1" data-name="组 1" transform="translate(263 1933)">
      <path id="路径_1" data-name="路径 1" d="M9.248.83A7.607,7.607,0,0,0,12.295.215,7.972,7.972,0,0,0,14.81-1.494a8.143,8.143,0,0,0,1.709-2.52,7.532,7.532,0,0,0,.62-3.037,7.532,7.532,0,0,0-.62-3.037A8.1,8.1,0,0,0,14.8-12.607a8.03,8.03,0,0,0-2.519-1.709,7.608,7.608,0,0,0-3.047-.615,7.584,7.584,0,0,0-3.037.615,7.914,7.914,0,0,0-2.51,1.709,8.183,8.183,0,0,0-1.7,2.519,7.532,7.532,0,0,0-.62,3.037,7.532,7.532,0,0,0,.62,3.037A8.141,8.141,0,0,0,3.7-1.494,7.972,7.972,0,0,0,6.211.215,7.583,7.583,0,0,0,9.248.83Zm0-1.484a6.273,6.273,0,0,1-2.485-.493A6.342,6.342,0,0,1,4.731-2.52,6.424,6.424,0,0,1,3.364-4.561a6.308,6.308,0,0,1-.493-2.49,6.362,6.362,0,0,1,.488-2.49,6.358,6.358,0,0,1,1.362-2.041,6.343,6.343,0,0,1,2.031-1.372,6.272,6.272,0,0,1,2.485-.493,6.3,6.3,0,0,1,2.5.493,6.4,6.4,0,0,1,2.036,1.372,6.453,6.453,0,0,1,1.377,2.041,6.255,6.255,0,0,1,.5,2.49,6.309,6.309,0,0,1-.493,2.49A6.425,6.425,0,0,1,13.784-2.52a6.327,6.327,0,0,1-2.036,1.372A6.332,6.332,0,0,1,9.248-.654ZM5.84-7.041a.7.7,0,0,0,.205.522.749.749,0,0,0,.547.2H8.506v1.924a.736.736,0,0,0,.2.537.7.7,0,0,0,.522.205.726.726,0,0,0,.537-.205.726.726,0,0,0,.205-.537V-6.318h1.924a.736.736,0,0,0,.537-.2.7.7,0,0,0,.205-.522.726.726,0,0,0-.205-.537.726.726,0,0,0-.537-.205H9.971V-9.7a.739.739,0,0,0-.205-.547.726.726,0,0,0-.537-.205.7.7,0,0,0-.522.205.749.749,0,0,0-.2.547v1.914H6.592a.739.739,0,0,0-.547.205A.726.726,0,0,0,5.84-7.041Z"/>
    </g>
    <g id="组_2" data-name="组 2" transform="translate(281.867 1933)">
      <path id="路径_2" data-name="路径 2" d="M11.709,2.91a9.555,9.555,0,0,0,3.843-.781A10.183,10.183,0,0,0,18.73-.029a10.183,10.183,0,0,0,2.158-3.179,9.555,9.555,0,0,0,.781-3.843,9.556,9.556,0,0,0-.781-3.843,10.184,10.184,0,0,0-2.158-3.179,10.168,10.168,0,0,0-3.184-2.158,9.59,9.59,0,0,0-3.848-.781,9.555,9.555,0,0,0-3.843.781,10.125,10.125,0,0,0-3.174,2.158,10.224,10.224,0,0,0-2.153,3.179,9.555,9.555,0,0,0-.781,3.843,9.555,9.555,0,0,0,.781,3.843A10.182,10.182,0,0,0,4.688-.029,10.182,10.182,0,0,0,7.866,2.129,9.555,9.555,0,0,0,11.709,2.91Zm0-1.66A8.118,8.118,0,0,1,8.477.605,8.351,8.351,0,0,1,5.835-1.177,8.283,8.283,0,0,1,4.058-3.818a8.172,8.172,0,0,1-.64-3.232,8.172,8.172,0,0,1,.64-3.232A8.381,8.381,0,0,1,5.83-12.93a8.187,8.187,0,0,1,2.637-1.782,8.171,8.171,0,0,1,3.232-.64,8.171,8.171,0,0,1,3.232.64,8.3,8.3,0,0,1,2.647,1.782,8.368,8.368,0,0,1,1.787,2.646,8.117,8.117,0,0,1,.645,3.232,8.171,8.171,0,0,1-.64,3.232,8.282,8.282,0,0,1-1.777,2.642A8.335,8.335,0,0,1,14.946.605,8.153,8.153,0,0,1,11.709,1.25ZM7.393-7.041a.763.763,0,0,0,.234.576.839.839,0,0,0,.605.225h2.646v2.666a.809.809,0,0,0,.225.591.771.771,0,0,0,.576.229.829.829,0,0,0,.606-.229.791.791,0,0,0,.234-.591V-6.24h2.656a.826.826,0,0,0,.6-.225.763.763,0,0,0,.234-.576.8.8,0,0,0-.234-.6.816.816,0,0,0-.6-.229H12.519v-2.647a.816.816,0,0,0-.234-.61.829.829,0,0,0-.606-.229.771.771,0,0,0-.576.229.835.835,0,0,0-.225.61v2.647H8.232a.825.825,0,0,0-.61.229A.812.812,0,0,0,7.393-7.041Z"/>
    </g>
    <g id="组_3" data-name="组 3" transform="translate(305.646 1933)">
      <path id="路径_3" data-name="路径 3" d="M14.971,5.664a12.246,12.246,0,0,0,3.989-.649,12.88,12.88,0,0,0,3.491-1.821A13.032,13.032,0,0,0,25.22.43a12.784,12.784,0,0,0,1.826-3.5A12.259,12.259,0,0,0,27.7-7.051a12.245,12.245,0,0,0-.649-3.989,12.8,12.8,0,0,0-1.826-3.491A13.132,13.132,0,0,0,22.451-17.3a12.784,12.784,0,0,0-3.5-1.826,12.289,12.289,0,0,0-3.994-.649,12.245,12.245,0,0,0-3.989.649A12.727,12.727,0,0,0,7.485-17.3a13.187,13.187,0,0,0-2.764,2.769A12.7,12.7,0,0,0,2.9-11.04a12.329,12.329,0,0,0-.645,3.989,12.259,12.259,0,0,0,.649,3.984A12.861,12.861,0,0,0,4.727.43,12.936,12.936,0,0,0,7.49,3.193a12.88,12.88,0,0,0,3.491,1.821A12.246,12.246,0,0,0,14.971,5.664Zm0-1.816A10.7,10.7,0,0,1,11.528,3.3,10.93,10.93,0,0,1,8.535,1.748,10.948,10.948,0,0,1,6.177-.61a10.827,10.827,0,0,1-1.548-3,10.784,10.784,0,0,1-.547-3.442A10.815,10.815,0,0,1,4.629-10.5a10.9,10.9,0,0,1,1.543-3,10.854,10.854,0,0,1,2.354-2.358A10.826,10.826,0,0,1,11.519-17.4a10.783,10.783,0,0,1,3.442-.547,10.815,10.815,0,0,1,3.452.547,10.9,10.9,0,0,1,3,1.543A10.8,10.8,0,0,1,23.77-13.5a11.006,11.006,0,0,1,1.548,3,10.729,10.729,0,0,1,.552,3.452,10.6,10.6,0,0,1-.537,3.442,10.825,10.825,0,0,1-1.548,3,10.9,10.9,0,0,1-2.363,2.358,11.006,11.006,0,0,1-3,1.548A10.728,10.728,0,0,1,14.971,3.848ZM9.453-7.041a.837.837,0,0,0,.259.63.912.912,0,0,0,.659.249h3.691v3.7a.9.9,0,0,0,.249.654.845.845,0,0,0,.63.254.9.9,0,0,0,.664-.254.886.886,0,0,0,.254-.654v-3.7h3.7a.9.9,0,0,0,.654-.249.845.845,0,0,0,.254-.63.9.9,0,0,0-.254-.664.886.886,0,0,0-.654-.254h-3.7V-11.65a.9.9,0,0,0-.254-.664.9.9,0,0,0-.664-.254.837.837,0,0,0-.63.259.912.912,0,0,0-.249.659v3.691H10.371a.9.9,0,0,0-.664.254A.9.9,0,0,0,9.453-7.041Z"/>
    </g>
    <text id="Design_Variations" data-name="Design Variations" transform="translate(263 1953)" font-size="13" font-family="SF Pro"><tspan x="0" y="0">Design Variations</tspan></text>
    <text id="Symbols_are_supported_in_up_to_nine_weights_and_three_scales." data-name="Symbols are supported in up to nine weights and three scales." transform="translate(263 1971)" font-size="13" font-family="SF Pro"><tspan x="0" y="0">Symbols are supported in up to nine weights and three scales.</tspan></text>
    <text id="For_optimal_layout_with_text_and_other_symbols_vertically_align" data-name="For optimal layout with text and other symbols, vertically align" transform="translate(263 1989)" font-size="13" font-family="SF Pro"><tspan x="0" y="0">For optimal layout with text and other symbols, vertically align</tspan></text>
    <text id="symbols_with_the_adjacent_text." data-name="symbols with the adjacent text." transform="translate(263 2007)" font-size="13" font-family="SF Pro"><tspan x="0" y="0">symbols with the adjacent text.</tspan></text>
    <path id="直线_3" data-name="直线 3" d="M.25,14h-.5V0h.5Z" transform="translate(776 1919)" fill="#00aeef"/>
    <g id="组_4" data-name="组 4" transform="translate(776 1933)">
      <path id="路径_4" data-name="路径 4" d="M3.311.156A.971.971,0,0,0,3.916-.01a1.182,1.182,0,0,0,.352-.576l1.26-3.447h5.762l1.26,3.447A1.182,1.182,0,0,0,12.9-.01a.953.953,0,0,0,.6.166.871.871,0,0,0,.62-.215.764.764,0,0,0,.229-.586,1.613,1.613,0,0,0-.107-.527l-4.58-12.2a1.485,1.485,0,0,0-.479-.674,1.26,1.26,0,0,0-.771-.225,1.216,1.216,0,0,0-1.23.889L2.6-1.162a1.613,1.613,0,0,0-.107.527.765.765,0,0,0,.22.581A.833.833,0,0,0,3.311.156Zm2.7-5.674L8.379-12.09h.049L10.8-5.518Z"/>
    </g>
    <path id="直线_4" data-name="直线 4" d="M.25,14h-.5V0h.5Z" transform="translate(793.197 1919)" fill="#00aeef"/>
    <text id="Margins" transform="translate(776 1953)" font-size="13" font-family="SF Pro"><tspan x="0" y="0">Margins</tspan></text>
    <text id="Leading_and_trailing_margins_on_the_left_and_right_side_of_each_symbol" data-name="Leading and trailing margins on the left and right side of each symbol" transform="translate(776 1971)" font-size="13" font-family="SF Pro"><tspan x="0" y="0">Leading and trailing margins on the left and right side of each symbol</tspan></text>
    <text id="can_be_adjusted_by_modifying_the_x-location_of_the_margin_guidelines." data-name="can be adjusted by modifying the x-location of the margin guidelines." transform="translate(776 1989)" font-size="13" font-family="SF Pro"><tspan x="0" y="0">can be adjusted by modifying the x-location of the margin guidelines.</tspan></text>
    <text id="Modifications_are_automatically_applied_proportionally_to_all" data-name="Modifications are automatically applied proportionally to all" transform="translate(776 2007)" font-size="13" font-family="SF Pro"><tspan x="0" y="0">Modifications are automatically applied proportionally to all</tspan></text>
    <text id="scales_and_weights." data-name="scales and weights." transform="translate(776 2025)" font-size="13" font-family="SF Pro"><tspan x="0" y="0">scales and weights.</tspan></text>
    <g id="组_5" data-name="组 5" transform="translate(1289 1933)">
      <path id="路径_5" data-name="路径 5" d="M2.842,1.865l1.7,1.709A1.729,1.729,0,0,0,5.9,4.18a2.149,2.149,0,0,0,1.411-.82L18.008-8.428,17.041-9.4,6.426,2.275a.909.909,0,0,1-.532.342.79.79,0,0,1-.62-.312L4.1,1.143a.772.772,0,0,1-.308-.62A.977.977,0,0,1,4.141-.02l11.475-10.8-.977-.967L3.047-.9a2.166,2.166,0,0,0-.8,1.4A1.744,1.744,0,0,0,2.842,1.865ZM9.258-16.328a1.1,1.1,0,0,0-.352.693,1.084,1.084,0,0,0,.137.684,1.064,1.064,0,0,0,.513.41,1.346,1.346,0,0,0,.825.02,8.319,8.319,0,0,1,2.217-.21,4.284,4.284,0,0,1,2.2.747l-.586,1.455a1.789,1.789,0,0,0-.142,1.089,1.893,1.893,0,0,0,.513.874l2.295,2.314a1.341,1.341,0,0,0,.7.43,2.166,2.166,0,0,0,.762-.02l1.065-.2.664.674-.039.557a1.526,1.526,0,0,0,.093.684,2.068,2.068,0,0,0,.483.674l.762.742a1.156,1.156,0,0,0,.786.376,1.025,1.025,0,0,0,.776-.337l2.91-2.92a1.032,1.032,0,0,0,.342-.767,1.126,1.126,0,0,0-.371-.776l-.771-.762a2.149,2.149,0,0,0-.659-.493,1.388,1.388,0,0,0-.669-.1l-.576.049-.645-.635.244-1.123a1.337,1.337,0,0,0-.039-.786,2.4,2.4,0,0,0-.576-.806l-2.2-2.187a8.842,8.842,0,0,0-2.661-1.86,7.324,7.324,0,0,0-2.842-.644,6.83,6.83,0,0,0-2.754.522A7.373,7.373,0,0,0,9.258-16.328Zm1.494.371A5.913,5.913,0,0,1,12.7-16.9a5.822,5.822,0,0,1,2.1-.181,6.256,6.256,0,0,1,2.065.571A6.361,6.361,0,0,1,18.7-15.205l2.432,2.412a.787.787,0,0,1,.22.342.89.89,0,0,1-.015.42l-.322,1.484,1.5,1.484.986-.059a.777.777,0,0,1,.283.024.739.739,0,0,1,.244.181l.576.576L22.168-5.9l-.576-.576a.824.824,0,0,1-.186-.244.734.734,0,0,1-.029-.293l.068-.977L19.951-9.473l-1.524.254a.935.935,0,0,1-.386.015.788.788,0,0,1-.327-.21l-2-2a.606.606,0,0,1-.22-.337.853.853,0,0,1,.093-.435l.879-2.09a6.418,6.418,0,0,0-2.637-1.514,5.25,5.25,0,0,0-2.988.029q-.117.029-.151-.044T10.752-15.957Z"/>
    </g>
    <text id="Exporting" transform="translate(1289 1953)" font-size="13" font-family="SF Pro"><tspan x="0" y="0">Exporting</tspan></text>
    <text id="Symbols_should_be_outlined_when_exporting_to_ensure_the" data-name="Symbols should be outlined when exporting to ensure the" transform="translate(1289 1971)" font-size="13" font-family="SF Pro"><tspan x="0" y="0">Symbols should be outlined when exporting to ensure the</tspan></text>
    <text id="design_is_preserved_when_submitting_to_Xcode." data-name="design is preserved when submitting to Xcode." transform="translate(1289 1989)" font-size="13" font-family="SF Pro"><tspan x="0" y="0">design is preserved when submitting to Xcode.</tspan></text>
    <text id="template-version" transform="translate(3036 1933)" font-size="13" font-family="SF Pro"><tspan x="-87.566" y="0">Template v.3.0</tspan></text>
    <text id="Requires_Xcode_13_or_greater" data-name="Requires Xcode 13 or greater" transform="translate(3036 1951)" font-size="13" font-family="SF Pro"><tspan x="-175.779" y="0">Requires Xcode 13 or greater</tspan></text>
    <text id="descriptive-name" transform="translate(3036 1969)" font-size="13" font-family="SF Pro"><tspan x="-290.97" y="0">Generated from custom.clock.arrow.2.circlepath</tspan></text>
    <text id="Typeset_at_100_points" data-name="Typeset at 100 points" transform="translate(3036 1987)" font-size="13" font-family="SF Pro"><tspan x="-130.273" y="0">Typeset at 100 points</tspan></text>
    <text id="Small" transform="translate(263 726)" font-size="13" font-family="SF Pro"><tspan x="0" y="0">Small</tspan></text>
    <text id="Medium-2" data-name="Medium" transform="translate(263 1156)" font-size="13" font-family="SF Pro"><tspan x="0" y="0">Medium</tspan></text>
    <text id="Large" transform="translate(263 1586)" font-size="13" font-family="SF Pro"><tspan x="0" y="0">Large</tspan></text>
  </g>
  <g id="Guides">
    <g id="H-reference" transform="translate(339 696)">
      <path id="路径_6" data-name="路径 6" d="M.993,0H3.638l25.69-67.133h.7v-3.326H28.123ZM11.688-24.48H46.982l-.751-2.249H12.438ZM55.119,0h2.644L30.638-70.459H29.433v3.326Z" fill="#27aae1"/>
    </g>
    <path id="Baseline-S" d="M2773,.25H0v-.5H2773Z" transform="translate(263 696)" fill="#27aae1"/>
    <path id="Capline-S" d="M2773,.25H0v-.5H2773Z" transform="translate(263 625.541)" fill="#27aae1"/>
    <g id="H-reference-2" data-name="H-reference" transform="translate(339 1126)">
      <path id="路径_7" data-name="路径 7" d="M.993,0H3.638l25.69-67.133h.7v-3.326H28.123ZM11.688-24.48H46.982l-.751-2.249H12.438ZM55.119,0h2.644L30.638-70.459H29.433v3.326Z" fill="#27aae1"/>
    </g>
    <path id="Baseline-M" d="M2773,.25H0v-.5H2773Z" transform="translate(263 1126)" fill="#27aae1"/>
    <path id="Capline-M" d="M2773,.25H0v-.5H2773Z" transform="translate(263 1055.54)" fill="#27aae1"/>
    <g id="H-reference-3" data-name="H-reference" transform="translate(339 1556)">
      <path id="路径_8" data-name="路径 8" d="M.993,0H3.638l25.69-67.133h.7v-3.326H28.123ZM11.688-24.48H46.982l-.751-2.249H12.438ZM55.119,0h2.644L30.638-70.459H29.433v3.326Z" fill="#27aae1"/>
    </g>
    <path id="Baseline-L" d="M2773,.25H0v-.5H2773Z" transform="translate(263 1556)" fill="#27aae1"/>
    <path id="Capline-L" d="M2773,.25H0v-.5H2773Z" transform="translate(263 1485.54)" fill="#27aae1"/>
    <path id="left-margin-Regular-M" d="M.25,119.34h-.5V0h.5Z" transform="translate(1381.59 1030.78)" fill="#00aeef"/>
    <path id="right-margin-Regular-M" d="M.25,119.34h-.5V0h.5Z" transform="translate(1518.1 1030.78)" fill="#00aeef"/>
  </g>
  <g id="Symbols">
    <g id="Black-L" transform="translate(2840.65 1556)">
      <path id="路径_10" data-name="路径 10" d="M92.705-102.736a65.868,65.868,0,0,0-22.894,3.978,68.815,68.815,0,0,0-19.67,11.122A68.886,68.886,0,0,0,35.2-70.88a66.067,66.067,0,0,0-8.681,20.939H17.765a6.165,6.165,0,0,0-4.681,1.649A5.335,5.335,0,0,0,11.6-44.277,8.015,8.015,0,0,0,13.323-39.7l19.26,25.052a5.4,5.4,0,0,0,4.424,2.2,5.241,5.241,0,0,0,4.366-2.2l19.2-25.072a7.619,7.619,0,0,0,1.708-4.5,5.564,5.564,0,0,0-1.47-4.034,5.972,5.972,0,0,0-4.641-1.678H47.428a46.734,46.734,0,0,1,9.778-16.836A48.315,48.315,0,0,1,72.994-78.347a46.477,46.477,0,0,1,19.712-4.221,45.791,45.791,0,0,1,18.623,3.8,49.824,49.824,0,0,1,15.344,10.633,14.519,14.519,0,0,0,7.6,3.845,8.648,8.648,0,0,0,7.591-2.5,9,9,0,0,0,3.023-7.02q-.059-4.171-3.7-8.172a51.321,51.321,0,0,0-13.262-10.872,73.161,73.161,0,0,0-17.161-7.286A66.064,66.064,0,0,0,92.705-102.736Zm0,135.874a66.09,66.09,0,0,0,22.935-3.978A68.333,68.333,0,0,0,135.3,18.038,69.16,69.16,0,0,0,150.214,1.282a66.434,66.434,0,0,0,8.7-20.939h8.732a6.244,6.244,0,0,0,4.75-1.649,5.427,5.427,0,0,0,1.488-4.044,7.548,7.548,0,0,0-1.776-4.543L152.85-54.946a5.253,5.253,0,0,0-4.387-2.209,5.424,5.424,0,0,0-4.424,2.209l-19.2,25.072a7.58,7.58,0,0,0-1.667,4.5,5.7,5.7,0,0,0,1.459,4.034,5.877,5.877,0,0,0,4.613,1.678H138a47.384,47.384,0,0,1-9.8,16.875A47.771,47.771,0,0,1,112.446,8.8,46.689,46.689,0,0,1,92.705,12.99,45.428,45.428,0,0,1,74.133,9.182,51.066,51.066,0,0,1,58.74-1.461a14.111,14.111,0,0,0-7.527-3.845,8.756,8.756,0,0,0-7.639,2.5,9.018,9.018,0,0,0-2.986,6.991q.058,4.142,3.639,8.2A52.152,52.152,0,0,0,57.567,23.226a74.86,74.86,0,0,0,17.151,7.286A65.072,65.072,0,0,0,92.705,33.138Z" fill="#4d4d4d"/>
    </g>
    <g id="Heavy-L" transform="translate(2545.12 1556)">
      <path id="路径_12" data-name="路径 12" d="M91.534-101.807a64.909,64.909,0,0,0-22.685,3.969,67.784,67.784,0,0,0-19.479,11.1,68.11,68.11,0,0,0-14.747,16.7,65,65,0,0,0-8.469,20.828H17.321a5.86,5.86,0,0,0-4.337,1.469A4.681,4.681,0,0,0,11.6-44.132a7.506,7.506,0,0,0,1.615,4.225L31.232-16.064A5.084,5.084,0,0,0,35.408-13.9a4.982,4.982,0,0,0,4.136-2.164L57.512-39.932A7.11,7.11,0,0,0,59.1-44.1a4.9,4.9,0,0,0-1.377-3.621,5.678,5.678,0,0,0-4.3-1.491h-8.9a47.862,47.862,0,0,1,9.878-17.93A49.722,49.722,0,0,1,70.839-79.516a47.883,47.883,0,0,1,20.695-4.519,47.162,47.162,0,0,1,20.189,4.378,50.276,50.276,0,0,1,16.152,12.032,12.4,12.4,0,0,0,6.572,3.487,7.71,7.71,0,0,0,6.7-2.063,7.919,7.919,0,0,0,2.811-6.117,10.6,10.6,0,0,0-3.083-7.2,54.945,54.945,0,0,0-13.445-11.664,70.633,70.633,0,0,0-17.3-7.829A64.224,64.224,0,0,0,91.534-101.807Zm0,133.988a65.076,65.076,0,0,0,22.725-3.969,67.441,67.441,0,0,0,19.466-11.1A68.28,68.28,0,0,0,148.447.417a65.553,65.553,0,0,0,8.5-20.828h8.81a5.916,5.916,0,0,0,4.4-1.469,4.782,4.782,0,0,0,1.384-3.636,7.086,7.086,0,0,0-1.649-4.2L151.872-53.562a5,5,0,0,0-4.167-2.179,5.127,5.127,0,0,0-4.176,2.179L125.556-29.694a7.179,7.179,0,0,0-1.547,4.171,4.969,4.969,0,0,0,1.36,3.621,5.6,5.6,0,0,0,4.279,1.492h8.927a48.625,48.625,0,0,1-9.914,17.968,49.3,49.3,0,0,1-16.41,12.386,48.037,48.037,0,0,1-20.717,4.5A46.788,46.788,0,0,1,71.4,10.046,51.407,51.407,0,0,1,55.2-2a12.027,12.027,0,0,0-6.512-3.487,7.766,7.766,0,0,0-6.725,2.063,7.9,7.9,0,0,0-2.8,6.1A10.8,10.8,0,0,0,42.2,9.894,55.907,55.907,0,0,0,55.719,21.536,71.771,71.771,0,0,0,73,29.365,63.462,63.462,0,0,0,91.534,32.181Z" fill="#4d4d4d"/>
    </g>
    <g id="Bold-L" transform="translate(2249.86 1556)">
      <path id="路径_14" data-name="路径 14" d="M90.081-100.64a63.728,63.728,0,0,0-22.42,3.954A66.483,66.483,0,0,0,48.429-85.633a67.126,67.126,0,0,0-14.5,16.619,63.7,63.7,0,0,0-8.208,20.682H16.73a5.432,5.432,0,0,0-3.876,1.246,3.908,3.908,0,0,0-1.247,3.114A6.811,6.811,0,0,0,13.068-40.2L29.653-17.764a4.663,4.663,0,0,0,3.827,2.088,4.621,4.621,0,0,0,3.811-2.088L53.835-40.223a6.432,6.432,0,0,0,1.436-3.737,4.1,4.1,0,0,0-1.251-3.11,5.269,5.269,0,0,0-3.843-1.261h-9.23a49.4,49.4,0,0,1,10-19.279A51.547,51.547,0,0,1,68.18-80.968a49.643,49.643,0,0,1,21.9-4.888,48.976,48.976,0,0,1,22.126,5.112,51.477,51.477,0,0,1,17.159,13.8,9.874,9.874,0,0,0,5.322,3.015,6.53,6.53,0,0,0,5.578-1.551,6.574,6.574,0,0,0,2.509-5.007,8.457,8.457,0,0,0-2.356-5.992A59.64,59.64,0,0,0,126.782-89.1a68.192,68.192,0,0,0-17.464-8.5A62.29,62.29,0,0,0,90.081-100.64Zm0,131.623a63.847,63.847,0,0,0,22.46-3.954,66.273,66.273,0,0,0,19.221-11.053A67.147,67.147,0,0,0,146.238-.643a64.443,64.443,0,0,0,8.239-20.683h8.969a5.467,5.467,0,0,0,3.925-1.246,4.006,4.006,0,0,0,1.246-3.129,6.447,6.447,0,0,0-1.484-3.758L150.561-51.893A4.645,4.645,0,0,0,146.711-54a4.716,4.716,0,0,0-3.827,2.107L126.328-29.434a6.616,6.616,0,0,0-1.39,3.737,4.118,4.118,0,0,0,1.226,3.11A5.212,5.212,0,0,0,130-21.326h9.268A50.253,50.253,0,0,1,129.211-2.013,51.228,51.228,0,0,1,112,11.364a49.736,49.736,0,0,1-21.916,4.874,48.61,48.61,0,0,1-22.066-5.13A52.455,52.455,0,0,1,50.81-2.714a9.553,9.553,0,0,0-5.274-3.015,6.536,6.536,0,0,0-5.588,1.551A6.535,6.535,0,0,0,37.417.814a8.565,8.565,0,0,0,2.34,6.006,60.705,60.705,0,0,0,13.7,12.611,68.764,68.764,0,0,0,17.444,8.5A61.774,61.774,0,0,0,90.081,30.983Z" fill="#4d4d4d"/>
    </g>
    <g id="Semibold-L" transform="translate(1954.15 1556)">
      <path id="路径_16" data-name="路径 16" d="M89.08-99.835a62.923,62.923,0,0,0-22.237,3.944A65.592,65.592,0,0,0,47.779-84.867,66.449,66.449,0,0,0,33.454-68.3a62.817,62.817,0,0,0-8.028,20.582h-9.1a5.156,5.156,0,0,0-3.559,1.093,3.385,3.385,0,0,0-1.151,2.77,6.335,6.335,0,0,0,1.356,3.46l15.6,21.462A4.38,4.38,0,0,0,32.153-16.9a4.379,4.379,0,0,0,3.587-2.036L51.3-40.423a5.967,5.967,0,0,0,1.33-3.438,3.554,3.554,0,0,0-1.164-2.758,5.008,5.008,0,0,0-3.528-1.1h-9.46A50.513,50.513,0,0,1,48.571-67.93,52.84,52.84,0,0,1,66.347-81.969,50.88,50.88,0,0,1,89.08-87.112a50.4,50.4,0,0,1,23.461,5.617,52.491,52.491,0,0,1,17.853,15.022,8.158,8.158,0,0,0,4.46,2.69,5.731,5.731,0,0,0,4.808-1.2,5.649,5.649,0,0,0,2.3-4.241,7.013,7.013,0,0,0-1.854-5.158,63.249,63.249,0,0,0-13.771-13.288,66.8,66.8,0,0,0-17.577-8.958A61.207,61.207,0,0,0,89.08-99.835Zm0,129.992a63.023,63.023,0,0,0,22.278-3.944,65.481,65.481,0,0,0,19.051-11.024A66.388,66.388,0,0,0,144.715-1.375a63.669,63.669,0,0,0,8.062-20.582h9.079a5.175,5.175,0,0,0,3.6-1.093,3.486,3.486,0,0,0,1.151-2.779,6,6,0,0,0-1.371-3.451L149.657-50.742a4.408,4.408,0,0,0-3.631-2.058,4.442,4.442,0,0,0-3.587,2.058L126.86-29.255a6.236,6.236,0,0,0-1.281,3.438,3.542,3.542,0,0,0,1.133,2.758,4.967,4.967,0,0,0,3.528,1.1h9.5A51.431,51.431,0,0,1,129.59-1.717a52.6,52.6,0,0,1-17.767,14.061A50.943,50.943,0,0,1,89.08,17.477a50.039,50.039,0,0,1-23.4-5.639,53.375,53.375,0,0,1-17.9-15.044A7.877,7.877,0,0,0,43.365-5.9a5.7,5.7,0,0,0-4.8,1.2A5.6,5.6,0,0,0,36.217-.466,7.062,7.062,0,0,0,38.071,4.7,64.4,64.4,0,0,0,51.894,17.98,67.082,67.082,0,0,0,69.45,26.938,60.821,60.821,0,0,0,89.08,30.157Z" fill="#4d4d4d"/>
    </g>
    <g id="Medium-L" transform="translate(1658.2 1556)">
      <path id="路径_18" data-name="路径 18" d="M88.321-99.225a62.315,62.315,0,0,0-22.1,3.936,64.92,64.92,0,0,0-18.935,11A65.94,65.94,0,0,0,33.092-67.765,62.152,62.152,0,0,0,25.2-47.259H16.014a4.963,4.963,0,0,0-3.319.976,3,3,0,0,0-1.079,2.509,5.979,5.979,0,0,0,1.276,3.224L27.74-19.824a4.172,4.172,0,0,0,3.405,2,4.2,4.2,0,0,0,3.417-2L49.378-40.575a5.614,5.614,0,0,0,1.25-3.212,3.15,3.15,0,0,0-1.1-2.491,4.828,4.828,0,0,0-3.29-.982H36.606A51.39,51.39,0,0,1,46.765-68.173,53.838,53.838,0,0,1,64.957-82.728a51.831,51.831,0,0,1,23.364-5.335,51.55,51.55,0,0,1,24.473,6,53.333,53.333,0,0,1,18.379,15.947,6.886,6.886,0,0,0,3.807,2.444A5.135,5.135,0,0,0,139.2-64.6a4.945,4.945,0,0,0,2.142-3.66,5.946,5.946,0,0,0-1.475-4.525A66.168,66.168,0,0,0,126-86.579a65.9,65.9,0,0,0-17.664-9.308A60.488,60.488,0,0,0,88.321-99.225Zm0,128.756a62.388,62.388,0,0,0,22.139-3.936,64.879,64.879,0,0,0,18.923-11A65.808,65.808,0,0,0,143.561-1.929a63.1,63.1,0,0,0,7.927-20.506h9.162A4.969,4.969,0,0,0,164-23.411a3.09,3.09,0,0,0,1.078-2.514,5.673,5.673,0,0,0-1.284-3.219L148.971-49.87a4.23,4.23,0,0,0-3.464-2.02,4.24,4.24,0,0,0-3.4,2.02L127.264-29.119a5.943,5.943,0,0,0-1.2,3.212,3.117,3.117,0,0,0,1.062,2.491,4.8,4.8,0,0,0,3.3.982H140.1A52.344,52.344,0,0,1,129.877-1.492,53.634,53.634,0,0,1,111.69,13.087a51.862,51.862,0,0,1-23.369,5.33,51.19,51.19,0,0,1-24.409-6.024A54.159,54.159,0,0,1,45.492-3.578a6.63,6.63,0,0,0-3.774-2.444,5.075,5.075,0,0,0-4.21.931,4.89,4.89,0,0,0-2.2,3.655,5.951,5.951,0,0,0,1.486,4.53A67.415,67.415,0,0,0,50.711,16.879a65.979,65.979,0,0,0,17.64,9.308A60.2,60.2,0,0,0,88.321,29.531Z" fill="#4d4d4d"/>
    </g>
    <g id="Regular-L" transform="translate(1362.48 1556)">
      <path id="路径_20" data-name="路径 20" d="M87.331-98.429A61.523,61.523,0,0,0,65.413-94.5,64.048,64.048,0,0,0,46.645-83.53,65.274,65.274,0,0,0,32.62-67.063a61.285,61.285,0,0,0-7.713,20.406h-9.3a4.742,4.742,0,0,0-3.005.824,2.5,2.5,0,0,0-.985,2.168,5.518,5.518,0,0,0,1.171,2.915L26.664-20.983a3.909,3.909,0,0,0,3.168,1.945,3.975,3.975,0,0,0,3.195-1.945L46.872-40.774a5.156,5.156,0,0,0,1.146-2.916,2.634,2.634,0,0,0-1.012-2.142,4.627,4.627,0,0,0-2.979-.824H34.165A52.565,52.565,0,0,1,44.41-68.49,55.154,55.154,0,0,1,63.144-83.718a53.083,53.083,0,0,1,24.187-5.587,53.119,53.119,0,0,1,25.793,6.5,54.518,54.518,0,0,1,19.065,17.154,5.274,5.274,0,0,0,2.956,2.122,4.38,4.38,0,0,0,3.461-.582,4.03,4.03,0,0,0,1.936-2.9,4.6,4.6,0,0,0-.979-3.7,70.236,70.236,0,0,0-14-14.446,64.9,64.9,0,0,0-17.776-9.764A59.677,59.677,0,0,0,87.331-98.429Zm0,127.143a61.568,61.568,0,0,0,21.958-3.925,64.088,64.088,0,0,0,18.755-10.973A65.054,65.054,0,0,0,142.055-2.652a62.33,62.33,0,0,0,7.751-20.407h9.272a4.722,4.722,0,0,0,3.031-.824,2.588,2.588,0,0,0,.985-2.168,5.241,5.241,0,0,0-1.172-2.915L148.077-48.732A4.009,4.009,0,0,0,144.83-50.7a3.987,3.987,0,0,0-3.168,1.971L127.79-28.942a5.592,5.592,0,0,0-1.092,2.916,2.578,2.578,0,0,0,.971,2.142,4.62,4.62,0,0,0,2.993.824h9.915A53.6,53.6,0,0,1,130.252-1.2a55.015,55.015,0,0,1-18.735,15.255,53.083,53.083,0,0,1-24.186,5.587A52.76,52.76,0,0,1,61.6,13.116,55.277,55.277,0,0,1,42.5-4.065a5.052,5.052,0,0,0-2.93-2.122,4.286,4.286,0,0,0-3.435.582,3.979,3.979,0,0,0-2.017,2.9A4.559,4.559,0,0,0,35.125,1,71.639,71.639,0,0,0,49.167,15.444a64.746,64.746,0,0,0,17.75,9.764A59.491,59.491,0,0,0,87.331,28.714Z" fill="#4d4d4d"/>
    </g>
    <g id="Light-L" transform="translate(1066.78 1556)">
      <path id="路径_22" data-name="路径 22" d="M86.318-97.513a60.785,60.785,0,0,0-21.7,3.887A62.938,62.938,0,0,0,46.081-82.738,64.392,64.392,0,0,0,32.257-66.395a60.444,60.444,0,0,0-7.541,20.254H14.942a3.957,3.957,0,0,0-2.471.672,2.083,2.083,0,0,0-.833,1.806,4.551,4.551,0,0,0,.98,2.457L26.186-21.842a3.293,3.293,0,0,0,2.662,1.677,3.4,3.4,0,0,0,2.708-1.677L45.077-41.193a4.378,4.378,0,0,0,.993-2.487,2.166,2.166,0,0,0-.849-1.789,3.883,3.883,0,0,0-2.454-.672H31.759a53.857,53.857,0,0,1,10.35-22.721A56.567,56.567,0,0,1,61.368-84.749a54.177,54.177,0,0,1,24.95-5.835,53.673,53.673,0,0,1,27.11,7.1,57.185,57.185,0,0,1,19.791,18.614,3.887,3.887,0,0,0,2.221,1.616,3.4,3.4,0,0,0,2.631-.4,3.116,3.116,0,0,0,1.468-2.187,3.55,3.55,0,0,0-.683-2.813,71.189,71.189,0,0,0-13.927-14.98,64.24,64.24,0,0,0-17.862-10.2A58.458,58.458,0,0,0,86.318-97.513Zm0,125.311a60.932,60.932,0,0,0,21.739-3.887A62.915,62.915,0,0,0,126.6,13.023,64.009,64.009,0,0,0,140.4-3.32a61.3,61.3,0,0,0,7.551-20.254h9.786a3.95,3.95,0,0,0,2.489-.672,2.136,2.136,0,0,0,.831-1.806,4.3,4.3,0,0,0-1.009-2.457L146.53-47.873a3.426,3.426,0,0,0-2.742-1.694,3.341,3.341,0,0,0-2.661,1.694L127.56-28.522a4.739,4.739,0,0,0-.93,2.487,2.144,2.144,0,0,0,.809,1.789,3.869,3.869,0,0,0,2.478.672h11.041A54.794,54.794,0,0,1,130.528-.836a56.485,56.485,0,0,1-19.26,15.9A54.179,54.179,0,0,1,86.318,20.9a53.38,53.38,0,0,1-27.053-7.118,57.7,57.7,0,0,1-19.8-18.631,3.752,3.752,0,0,0-2.2-1.617,3.338,3.338,0,0,0-2.614.4A3.062,3.062,0,0,0,33.1-3.876a3.471,3.471,0,0,0,.729,2.813,72.286,72.286,0,0,0,13.937,14.98,63.865,63.865,0,0,0,17.846,10.2A58.383,58.383,0,0,0,86.318,27.8Z" fill="#4d4d4d"/>
    </g>
    <g id="Thin-L" transform="translate(771.406 1556)">
      <path id="路径_24" data-name="路径 24" d="M84.979-96.3a59.812,59.812,0,0,0-21.408,3.837A61.484,61.484,0,0,0,45.335-81.691,63.231,63.231,0,0,0,31.776-65.512,59.343,59.343,0,0,0,24.462-45.46h-10.4a2.923,2.923,0,0,0-1.764.47,1.531,1.531,0,0,0-.631,1.326,3.281,3.281,0,0,0,.728,1.852L25.553-22.978a2.484,2.484,0,0,0,1.994,1.324,2.654,2.654,0,0,0,2.064-1.324L42.7-41.749a3.353,3.353,0,0,0,.79-1.919,1.55,1.55,0,0,0-.635-1.322,2.9,2.9,0,0,0-1.76-.47H28.577A55.593,55.593,0,0,1,39.066-69.354,58.457,58.457,0,0,1,59.019-86.112a55.646,55.646,0,0,1,25.96-6.163,54.686,54.686,0,0,1,28.852,7.9,60.793,60.793,0,0,1,20.75,20.545,2.065,2.065,0,0,0,1.249.948,2.131,2.131,0,0,0,1.533-.161,1.925,1.925,0,0,0,.849-1.241,2.172,2.172,0,0,0-.291-1.639A72.535,72.535,0,0,0,124.1-81.613,63.526,63.526,0,0,0,106.119-92.4,57.059,57.059,0,0,0,84.979-96.3Zm0,122.887a60.084,60.084,0,0,0,21.448-3.837,61.387,61.387,0,0,0,18.268-10.774A62.632,62.632,0,0,0,138.218-4.2,59.916,59.916,0,0,0,145.5-24.256h10.468a2.923,2.923,0,0,0,1.769-.47,1.544,1.544,0,0,0,.63-1.326,3.1,3.1,0,0,0-.795-1.852L144.484-46.738a2.659,2.659,0,0,0-2.073-1.328,2.494,2.494,0,0,0-1.992,1.328L127.255-27.967a3.6,3.6,0,0,0-.715,1.919,1.574,1.574,0,0,0,.6,1.322,2.879,2.879,0,0,0,1.8.47h12.53a56.41,56.41,0,0,1-10.569,23.9,58.423,58.423,0,0,1-19.954,16.762,55.647,55.647,0,0,1-25.959,6.163,54.453,54.453,0,0,1-28.807-7.9A61,61,0,0,1,35.45-5.882,2.039,2.039,0,0,0,34.2-6.83a2.115,2.115,0,0,0-1.529.161,1.858,1.858,0,0,0-.93,1.241,2.029,2.029,0,0,0,.363,1.639A73.215,73.215,0,0,0,45.907,11.9,62.883,62.883,0,0,0,63.879,22.681,57.114,57.114,0,0,0,84.979,26.586Z" fill="#4d4d4d"/>
    </g>
    <g id="Ultralight-L" transform="translate(475.378 1556)">
      <path id="路径_26" data-name="路径 26" d="M84.293-95.681a59.312,59.312,0,0,0-21.26,3.811A60.741,60.741,0,0,0,44.952-81.154,62.634,62.634,0,0,0,31.529-65.059a58.788,58.788,0,0,0-7.2,19.949H13.6a2.4,2.4,0,0,0-1.4.367,1.247,1.247,0,0,0-.527,1.08,2.637,2.637,0,0,0,.6,1.542L25.229-23.559a2.075,2.075,0,0,0,1.651,1.143,2.273,2.273,0,0,0,1.734-1.143L41.487-42.033a2.83,2.83,0,0,0,.687-1.628,1.236,1.236,0,0,0-.525-1.083,2.409,2.409,0,0,0-1.4-.367h-13.3a56.5,56.5,0,0,1,10.56-24.5,59.434,59.434,0,0,1,20.309-17.2,56.407,56.407,0,0,1,26.477-6.331,55.3,55.3,0,0,1,29.744,8.3A62.647,62.647,0,0,1,135.278-63.3a1.154,1.154,0,0,0,.751.6,1.546,1.546,0,0,0,.971-.038,1.349,1.349,0,0,0,.533-.756,1.494,1.494,0,0,0-.091-1.038,73.21,73.21,0,0,0-13.775-16.049A63.227,63.227,0,0,0,105.634-91.66,56.424,56.424,0,0,0,84.293-95.681Zm0,121.646a59.656,59.656,0,0,0,21.3-3.811,60.591,60.591,0,0,0,18.125-10.716A61.929,61.929,0,0,0,137.1-4.656a59.224,59.224,0,0,0,7.15-19.949h10.817a2.4,2.4,0,0,0,1.4-.366,1.238,1.238,0,0,0,.526-1.08,2.481,2.481,0,0,0-.685-1.542L143.436-46.156a2.271,2.271,0,0,0-1.73-1.141,2.065,2.065,0,0,0-1.65,1.141L127.1-27.683a3.025,3.025,0,0,0-.6,1.628,1.283,1.283,0,0,0,.485,1.083,2.378,2.378,0,0,0,1.447.366h13.293A57.25,57.25,0,0,1,131.079-.111a59.43,59.43,0,0,1-20.309,17.2,56.413,56.413,0,0,1-26.477,6.331,55.09,55.09,0,0,1-29.706-8.3A62.717,62.717,0,0,1,33.394-6.412a1.172,1.172,0,0,0-.754-.605,1.554,1.554,0,0,0-.973.038,1.259,1.259,0,0,0-.613.756,1.287,1.287,0,0,0,.175,1.038A73.719,73.719,0,0,0,44.956,10.864,62.45,62.45,0,0,0,62.993,21.944,56.539,56.539,0,0,0,84.293,25.965Z" fill="#4d4d4d"/>
    </g>
    <g id="Black-M" transform="translate(2860.67 1126)">
      <path id="路径_28" data-name="路径 28" d="M72.692-88.2a51.761,51.761,0,0,0-17.887,3.085,54.05,54.05,0,0,0-15.372,8.628A53.916,53.916,0,0,0,27.712-63.478a51.985,51.985,0,0,0-6.884,16.3H14.054a4.948,4.948,0,0,0-3.85,1.412,4.651,4.651,0,0,0-1.222,3.406,6.523,6.523,0,0,0,1.41,3.779L26.34-18.191a4.371,4.371,0,0,0,3.572,1.7,4.214,4.214,0,0,0,3.514-1.7l15.891-20.4a6.235,6.235,0,0,0,1.4-3.719,4.83,4.83,0,0,0-1.2-3.432,4.794,4.794,0,0,0-3.819-1.44H38.911a35.465,35.465,0,0,1,7.5-12.223A36.44,36.44,0,0,1,58.162-67.77a34.961,34.961,0,0,1,14.53-3.047,34.441,34.441,0,0,1,13.261,2.525,38.814,38.814,0,0,1,11.291,7.233,12.912,12.912,0,0,0,6.667,3.218,7.378,7.378,0,0,0,6.537-2.284,7.785,7.785,0,0,0,2.461-6.118,11.1,11.1,0,0,0-3.35-7.045A37.028,37.028,0,0,0,99.45-81.1,59.026,59.026,0,0,0,86.26-86.34,52.743,52.743,0,0,0,72.692-88.2Zm0,106.639a51.992,51.992,0,0,0,17.918-3.085,53.542,53.542,0,0,0,15.368-8.628A54.182,54.182,0,0,0,117.672-6.291a52.065,52.065,0,0,0,6.89-16.3h6.768A5.026,5.026,0,0,0,135.24-24a4.7,4.7,0,0,0,1.222-3.434A6.122,6.122,0,0,0,135-31.184L119.05-51.578a4.218,4.218,0,0,0-3.52-1.7,4.377,4.377,0,0,0-3.571,1.7l-15.891,20.4a6.109,6.109,0,0,0-1.373,3.718,5,5,0,0,0,1.194,3.432,4.7,4.7,0,0,0,3.79,1.44h6.8A35.871,35.871,0,0,1,98.97-10.334,35.938,35.938,0,0,1,87.251-1.965,35.184,35.184,0,0,1,72.692,1.053,34.183,34.183,0,0,1,59.466-1.475,39.843,39.843,0,0,1,48.141-8.71a12.576,12.576,0,0,0-6.606-3.218,7.511,7.511,0,0,0-6.592,2.284,7.823,7.823,0,0,0-2.408,6.09,11.393,11.393,0,0,0,3.293,7.073A37.561,37.561,0,0,0,46,11.3a60.918,60.918,0,0,0,13.187,5.238A51.772,51.772,0,0,0,72.692,18.435Z" fill="#4d4d4d"/>
    </g>
    <g id="Heavy-M" transform="translate(2565.02 1126)">
      <path id="路径_30" data-name="路径 30" d="M71.641-87.381a50.883,50.883,0,0,0-17.7,3.079,53.143,53.143,0,0,0-15.206,8.61A53.239,53.239,0,0,0,27.185-62.722a51.021,51.021,0,0,0-6.693,16.2H13.682a4.707,4.707,0,0,0-3.563,1.25,4.038,4.038,0,0,0-1.135,3.047A6.108,6.108,0,0,0,10.3-38.741L25.063-19.492A4.115,4.115,0,0,0,28.439-17.8a4,4,0,0,0,3.335-1.688L46.489-38.755a5.809,5.809,0,0,0,1.3-3.432,4.211,4.211,0,0,0-1.121-3.061,4.56,4.56,0,0,0-3.533-1.272H36.3A36.381,36.381,0,0,1,43.89-59.73a37.651,37.651,0,0,1,12.33-9.087,36.213,36.213,0,0,1,15.421-3.316A35.59,35.59,0,0,1,86.311-69.1,38.732,38.732,0,0,1,98.325-60.63a10.937,10.937,0,0,0,5.732,2.915,6.545,6.545,0,0,0,5.739-1.876,6.806,6.806,0,0,0,2.3-5.3,9.37,9.37,0,0,0-2.778-6.178,40.178,40.178,0,0,0-10.293-8.54,56.277,56.277,0,0,0-13.315-5.728A50.836,50.836,0,0,0,71.641-87.381Zm0,104.965a51.054,51.054,0,0,0,17.734-3.08,52.786,52.786,0,0,0,15.2-8.61A53.423,53.423,0,0,0,116.1-7.074a51.329,51.329,0,0,0,6.708-16.2h6.8a4.765,4.765,0,0,0,3.614-1.25A4.108,4.108,0,0,0,134.35-27.6,5.754,5.754,0,0,0,133-31.055L118.237-50.3a4.014,4.014,0,0,0-3.351-1.7,4.138,4.138,0,0,0-3.376,1.7L96.792-31.041a5.785,5.785,0,0,0-1.27,3.432,4.308,4.308,0,0,0,1.111,3.061,4.487,4.487,0,0,0,3.512,1.272H107a36.908,36.908,0,0,1-7.611,13.241A37.253,37.253,0,0,1,87.083-.94,36.372,36.372,0,0,1,71.641,2.354,35.309,35.309,0,0,1,57.01-.691,39.668,39.668,0,0,1,44.959-9.166a10.631,10.631,0,0,0-5.68-2.915A6.625,6.625,0,0,0,33.5-10.2a6.815,6.815,0,0,0-2.271,5.28,9.58,9.58,0,0,0,2.737,6.2A40.827,40.827,0,0,0,44.32,9.793a57.5,57.5,0,0,0,13.307,5.728A50.113,50.113,0,0,0,71.641,17.585Z" fill="#4d4d4d"/>
    </g>
    <g id="Bold-M" transform="translate(2269.49 1126)">
      <path id="路径_32" data-name="路径 32" d="M70.464-86.46a49.906,49.906,0,0,0-17.5,3.074A52.134,52.134,0,0,0,37.946-74.8,52.485,52.485,0,0,0,26.6-61.876a49.952,49.952,0,0,0-6.479,16.1H13.265a4.46,4.46,0,0,0-3.241,1.069,3.37,3.37,0,0,0-1.036,2.646A5.652,5.652,0,0,0,10.2-38.915L23.635-20.947a3.844,3.844,0,0,0,3.157,1.678,3.784,3.784,0,0,0,3.134-1.678l13.4-17.991a5.334,5.334,0,0,0,1.189-3.111A3.533,3.533,0,0,0,43.48-44.7a4.321,4.321,0,0,0-3.213-1.083H33.375a37.538,37.538,0,0,1,7.691-14.316,39.075,39.075,0,0,1,12.981-9.894,37.662,37.662,0,0,1,16.417-3.617A37.243,37.243,0,0,1,86.711-70a39.111,39.111,0,0,1,12.824,9.845,8.772,8.772,0,0,0,4.687,2.575,5.624,5.624,0,0,0,4.846-1.419,5.717,5.717,0,0,0,2.114-4.388,7.487,7.487,0,0,0-2.139-5.209,44.278,44.278,0,0,0-10.5-9.351,53.865,53.865,0,0,0-13.456-6.276A49.176,49.176,0,0,0,70.464-86.46Zm0,103.093A50.011,50.011,0,0,0,87.992,13.56,51.923,51.923,0,0,0,103,4.971,52.581,52.581,0,0,0,114.335-7.95a50.5,50.5,0,0,0,6.5-16.1h6.828a4.494,4.494,0,0,0,3.284-1.069,3.453,3.453,0,0,0,1.036-2.66,5.345,5.345,0,0,0-1.231-3.135l-13.43-17.968a3.8,3.8,0,0,0-3.162-1.692,3.884,3.884,0,0,0-3.157,1.692L97.6-30.888a5.435,5.435,0,0,0-1.156,3.111,3.562,3.562,0,0,0,1.019,2.646,4.269,4.269,0,0,0,3.2,1.083h6.92A38.172,38.172,0,0,1,99.862-9.7,38.781,38.781,0,0,1,86.895.206a37.76,37.76,0,0,1-16.431,3.6A36.944,36.944,0,0,1,54.263.185,39.96,39.96,0,0,1,41.4-9.675a8.494,8.494,0,0,0-4.645-2.575,5.645,5.645,0,0,0-4.861,1.419,5.693,5.693,0,0,0-2.118,4.373A7.607,7.607,0,0,0,31.89-1.235,45.1,45.1,0,0,0,42.445,8.1a54.553,54.553,0,0,0,13.442,6.276A48.67,48.67,0,0,0,70.464,16.633Z" fill="#4d4d4d"/>
    </g>
    <g id="Semibold-M" transform="translate(1973.59 1126)">
      <path id="路径_34" data-name="路径 34" d="M69.653-85.825A49.24,49.24,0,0,0,52.3-82.755,51.447,51.447,0,0,0,37.4-74.179,51.969,51.969,0,0,0,26.19-61.292a49.224,49.224,0,0,0-6.331,16.024H12.978a4.311,4.311,0,0,0-3.02.944,2.922,2.922,0,0,0-.969,2.37,5.345,5.345,0,0,0,1.141,2.92L22.65-21.95a3.668,3.668,0,0,0,3.006,1.671,3.639,3.639,0,0,0,2.995-1.671L41.146-39.065a5.007,5.007,0,0,0,1.111-2.89,3.076,3.076,0,0,0-.978-2.36,4.18,4.18,0,0,0-2.992-.953H31.36a38.4,38.4,0,0,1,7.759-15.078A40.094,40.094,0,0,1,52.549-70.8a38.685,38.685,0,0,1,17.1-3.825,38.526,38.526,0,0,1,17.333,4,39.586,39.586,0,0,1,13.382,10.8,7.316,7.316,0,0,0,3.968,2.341,5,5,0,0,0,4.23-1.1,4.958,4.958,0,0,0,1.987-3.758,6.229,6.229,0,0,0-1.7-4.54,47.515,47.515,0,0,0-10.643-9.91A52.538,52.538,0,0,0,84.66-83.446,48.259,48.259,0,0,0,69.653-85.825Zm0,101.8a49.3,49.3,0,0,0,17.385-3.07,51.341,51.341,0,0,0,14.879-8.575,52,52,0,0,0,11.2-12.887,49.879,49.879,0,0,0,6.364-16.024h6.851a4.331,4.331,0,0,0,3.057-.944,3.01,3.01,0,0,0,.968-2.379,5.065,5.065,0,0,0-1.148-2.911L116.7-47.9a3.66,3.66,0,0,0-3.031-1.689,3.72,3.72,0,0,0-3.006,1.689L98.16-30.782a5.2,5.2,0,0,0-1.077,2.89,3.066,3.066,0,0,0,.956,2.36,4.144,4.144,0,0,0,2.987.953h6.964a39.131,39.131,0,0,1-7.8,15.106A39.862,39.862,0,0,1,86.766,1,38.746,38.746,0,0,1,69.653,4.812,38.217,38.217,0,0,1,52.369.789,40.392,40.392,0,0,1,38.945-10.026a7.054,7.054,0,0,0-3.931-2.341,4.98,4.98,0,0,0-4.23,1.1,4.925,4.925,0,0,0-2.013,3.749,6.3,6.3,0,0,0,1.686,4.549,48.444,48.444,0,0,0,10.694,9.9A52.93,52.93,0,0,0,54.686,13.59,47.874,47.874,0,0,0,69.653,15.978Z" fill="#4d4d4d"/>
    </g>
    <g id="Medium-M" transform="translate(1677.49 1126)">
      <path id="路径_36" data-name="路径 36" d="M69.038-85.343a48.738,48.738,0,0,0-17.247,3.067,50.929,50.929,0,0,0-14.8,8.564A51.581,51.581,0,0,0,25.882-60.85a48.675,48.675,0,0,0-6.219,15.969h-6.9a4.215,4.215,0,0,0-2.852.849,2.591,2.591,0,0,0-.917,2.16,5.117,5.117,0,0,0,1.087,2.746L21.9-22.711A3.54,3.54,0,0,0,24.8-21.045a3.535,3.535,0,0,0,2.89-1.666l11.807-16.45a4.76,4.76,0,0,0,1.052-2.723,2.737,2.737,0,0,0-.934-2.144,4.09,4.09,0,0,0-2.825-.854H29.833a39.079,39.079,0,0,1,7.81-15.656A40.885,40.885,0,0,1,51.414-71.41a39.473,39.473,0,0,1,17.624-3.982,39.555,39.555,0,0,1,18.158,4.3A40.05,40.05,0,0,1,101-59.57a6.231,6.231,0,0,0,3.421,2.164,4.539,4.539,0,0,0,3.764-.865,4.389,4.389,0,0,0,1.891-3.28,5.312,5.312,0,0,0-1.363-4.033A50.157,50.157,0,0,0,97.963-75.92a51.676,51.676,0,0,0-13.627-6.94A47.664,47.664,0,0,0,69.038-85.343Zm0,100.824a48.76,48.76,0,0,0,17.278-3.067A50.9,50.9,0,0,0,101.1,3.849,51.573,51.573,0,0,0,112.2-9.013a49.461,49.461,0,0,0,6.258-15.969h6.867a4.218,4.218,0,0,0,2.884-.849A2.678,2.678,0,0,0,129.125-28a4.858,4.858,0,0,0-1.083-2.741L116.224-47.152a3.562,3.562,0,0,0-2.933-1.688,3.6,3.6,0,0,0-2.892,1.688L98.583-30.7a5.033,5.033,0,0,0-1.017,2.723,2.7,2.7,0,0,0,.908,2.144,4.068,4.068,0,0,0,2.825.854h7A39.861,39.861,0,0,1,100.433-9.3,40.694,40.694,0,0,1,86.667,1.6,39.506,39.506,0,0,1,69.038,5.572a39.24,39.24,0,0,1-18.1-4.325A40.817,40.817,0,0,1,37.084-10.292a5.991,5.991,0,0,0-3.389-2.164,4.487,4.487,0,0,0-3.752.865,4.348,4.348,0,0,0-1.933,3.275A5.339,5.339,0,0,0,29.37-4.277a51.216,51.216,0,0,0,10.8,10.329,51.882,51.882,0,0,0,13.605,6.94A47.362,47.362,0,0,0,69.038,15.481Z" fill="#4d4d4d"/>
    </g>
    <g id="Regular-M" transform="translate(1381.59 1126)">
      <path id="路径_38" data-name="路径 38" d="M68.236-84.715A48.084,48.084,0,0,0,51.13-81.652,50.256,50.256,0,0,0,36.459-73.1,51.076,51.076,0,0,0,25.48-60.273a47.961,47.961,0,0,0-6.073,15.9h-6.93a4.122,4.122,0,0,0-2.633.726,2.173,2.173,0,0,0-.85,1.887,4.829,4.829,0,0,0,1.016,2.52L20.93-23.7a3.381,3.381,0,0,0,2.742,1.659A3.406,3.406,0,0,0,26.425-23.7L37.336-39.286a4.439,4.439,0,0,0,.975-2.5,2.308,2.308,0,0,0-.876-1.861,4.01,4.01,0,0,0-2.607-.726H27.84a40,40,0,0,1,7.877-16.409A41.933,41.933,0,0,1,49.932-72.209a40.512,40.512,0,0,1,18.3-4.187A40.954,40.954,0,0,1,87.468-71.7a40.748,40.748,0,0,1,14.358,12.458,4.876,4.876,0,0,0,2.708,1.932,3.957,3.957,0,0,0,3.155-.554,3.644,3.644,0,0,0,1.766-2.657,4.168,4.168,0,0,0-.926-3.372A53.93,53.93,0,0,0,97.636-74.782,50.722,50.722,0,0,0,83.913-82.1,47,47,0,0,0,68.236-84.715Zm0,99.547a48.062,48.062,0,0,0,17.137-3.063,50.33,50.33,0,0,0,14.65-8.55A50.987,50.987,0,0,0,111-9.61a48.9,48.9,0,0,0,6.12-15.9h6.889a4.1,4.1,0,0,0,2.659-.726,2.263,2.263,0,0,0,.85-1.887,4.6,4.6,0,0,0-1-2.519L115.6-46.18a3.438,3.438,0,0,0-2.8-1.685,3.457,3.457,0,0,0-2.742,1.685L99.135-30.6a4.825,4.825,0,0,0-.938,2.5,2.242,2.242,0,0,0,.845,1.861,4.006,4.006,0,0,0,2.612.726h7.04a40.845,40.845,0,0,1-7.94,16.435A41.793,41.793,0,0,1,86.539,2.377a40.512,40.512,0,0,1-18.3,4.187A40.631,40.631,0,0,1,49.06,1.845a41.477,41.477,0,0,1-14.4-12.484,4.655,4.655,0,0,0-2.683-1.932,3.864,3.864,0,0,0-3.129.554A3.607,3.607,0,0,0,27.016-9.36a4.152,4.152,0,0,0,.937,3.372A55.157,55.157,0,0,0,38.892,4.9a50.722,50.722,0,0,0,13.7,7.314A46.793,46.793,0,0,0,68.236,14.832Z" fill="#4d4d4d"/>
    </g>
    <g id="Light-M" transform="translate(1085.78 1126)">
      <path id="路径_40" data-name="路径 40" d="M67.328-83.894a47.424,47.424,0,0,0-16.909,3.029,49.259,49.259,0,0,0-14.465,8.474,50.283,50.283,0,0,0-10.8,12.717,47.2,47.2,0,0,0-5.919,15.76H11.876a3.417,3.417,0,0,0-2.154.589,1.8,1.8,0,0,0-.713,1.562,3.959,3.959,0,0,0,.845,2.109L20.5-24.473a2.827,2.827,0,0,0,2.289,1.419,2.893,2.893,0,0,0,2.316-1.419l10.62-15.189a3.74,3.74,0,0,0,.838-2.119,1.888,1.888,0,0,0-.731-1.544,3.342,3.342,0,0,0-2.136-.589H25.683a41.145,41.145,0,0,1,7.972-17.205A43.191,43.191,0,0,1,48.34-73.133a41.482,41.482,0,0,1,18.988-4.41,41.315,41.315,0,0,1,20.413,5.233,43.106,43.106,0,0,1,15.008,13.767,3.632,3.632,0,0,0,2.05,1.479,3.072,3.072,0,0,0,2.41-.392,2.825,2.825,0,0,0,1.347-2.015,3.223,3.223,0,0,0-.661-2.577A54.764,54.764,0,0,0,97.071-73.413a50.059,50.059,0,0,0-13.8-7.708A45.822,45.822,0,0,0,67.328-83.894Zm0,97.9a47.49,47.49,0,0,0,16.94-3.029A49.271,49.271,0,0,0,98.73,2.508a50.049,50.049,0,0,0,10.786-12.717,47.946,47.946,0,0,0,5.94-15.76h7.351a3.4,3.4,0,0,0,2.171-.589,1.857,1.857,0,0,0,.713-1.562,3.755,3.755,0,0,0-.854-2.109L114.216-45.41a2.915,2.915,0,0,0-2.351-1.437,2.877,2.877,0,0,0-2.288,1.437L98.929-30.221a4.054,4.054,0,0,0-.793,2.119,1.855,1.855,0,0,0,.7,1.544,3.332,3.332,0,0,0,2.15.589h8.049A41.914,41.914,0,0,1,101-8.746,43.106,43.106,0,0,1,86.316,3.284,41.483,41.483,0,0,1,67.328,7.694a41.06,41.06,0,0,1-20.365-5.25A43.612,43.612,0,0,1,31.935-11.34,3.489,3.489,0,0,0,29.9-12.819a3.01,3.01,0,0,0-2.393.392A2.783,2.783,0,0,0,26.1-10.413a3.177,3.177,0,0,0,.689,2.577A55.71,55.71,0,0,0,37.633,3.531a49.862,49.862,0,0,0,13.783,7.708A45.716,45.716,0,0,0,67.328,14.011Z" fill="#4d4d4d"/>
    </g>
    <g id="Thin-M" transform="translate(790.267 1126)">
      <path id="路径_42" data-name="路径 42" d="M66.127-82.807a46.55,46.55,0,0,0-16.649,2.983,47.951,47.951,0,0,0-14.194,8.372,49.24,49.24,0,0,0-10.562,12.57A46.215,46.215,0,0,0,19.007-43.3H11.083a2.488,2.488,0,0,0-1.52.408,1.306,1.306,0,0,0-.532,1.132A2.816,2.816,0,0,0,9.649-40.2L19.934-25.491a2.1,2.1,0,0,0,1.69,1.1,2.218,2.218,0,0,0,1.739-1.1L33.6-40.16a2.82,2.82,0,0,0,.656-1.61,1.334,1.334,0,0,0-.538-1.126A2.461,2.461,0,0,0,32.2-43.3H22.83a42.691,42.691,0,0,1,8.1-18.257A44.878,44.878,0,0,1,46.234-74.355a42.791,42.791,0,0,1,19.893-4.7A42.127,42.127,0,0,1,88.1-73.113a46.308,46.308,0,0,1,15.868,15.5,1.994,1.994,0,0,0,1.178.879,1.92,1.92,0,0,0,1.426-.177,1.749,1.749,0,0,0,.793-1.167,1.984,1.984,0,0,0-.311-1.524,55.9,55.9,0,0,0-10.733-12,49.36,49.36,0,0,0-13.9-8.228A44.494,44.494,0,0,0,66.127-82.807Zm0,95.732a46.735,46.735,0,0,0,16.68-2.984A47.884,47.884,0,0,0,97.02,1.569,48.8,48.8,0,0,0,107.557-11a46.719,46.719,0,0,0,5.7-15.579h7.962a2.484,2.484,0,0,0,1.526-.408,1.325,1.325,0,0,0,.532-1.132,2.656,2.656,0,0,0-.662-1.566L112.382-44.392a2.226,2.226,0,0,0-1.751-1.108,2.116,2.116,0,0,0-1.689,1.108L98.656-29.723a3.036,3.036,0,0,0-.6,1.61,1.343,1.343,0,0,0,.507,1.126,2.444,2.444,0,0,0,1.539.408h9.385a43.356,43.356,0,0,1-8.158,18.264A44.849,44.849,0,0,1,86.02,4.484a42.793,42.793,0,0,1-19.893,4.7A41.936,41.936,0,0,1,44.19,3.236a46.536,46.536,0,0,1-15.854-15.5,1.95,1.95,0,0,0-1.173-.879,1.9,1.9,0,0,0-1.42.177,1.7,1.7,0,0,0-.855,1.167,1.886,1.886,0,0,0,.361,1.524,56.516,56.516,0,0,0,10.721,12,48.915,48.915,0,0,0,13.9,8.228A44.509,44.509,0,0,0,66.127,12.924Z" fill="#4d4d4d"/>
    </g>
    <g id="Ultralight-M" transform="translate(494.168 1126)">
      <path id="路径_44" data-name="路径 44" d="M65.512-82.251A46.1,46.1,0,0,0,49-79.291a47.284,47.284,0,0,0-14.055,8.319A48.7,48.7,0,0,0,24.5-58.476,45.712,45.712,0,0,0,18.89-42.99H10.676a2.015,2.015,0,0,0-1.2.315,1.052,1.052,0,0,0-.44.911,2.237,2.237,0,0,0,.5,1.288l10.1,14.463a1.731,1.731,0,0,0,1.383.94,1.876,1.876,0,0,0,1.443-.94l10.039-14.4a2.35,2.35,0,0,0,.563-1.349,1.052,1.052,0,0,0-.44-.911,2.015,2.015,0,0,0-1.2-.315H21.369a43.5,43.5,0,0,1,8.16-18.8A45.751,45.751,0,0,1,45.156-74.981a43.471,43.471,0,0,1,20.357-4.854,42.651,42.651,0,0,1,22.775,6.311A47.972,47.972,0,0,1,104.6-57.139a1.167,1.167,0,0,0,.732.572,1.364,1.364,0,0,0,.922-.067,1.212,1.212,0,0,0,.509-.732,1.364,1.364,0,0,0-.132-.985A56.506,56.506,0,0,0,95.939-70.676a49.073,49.073,0,0,0-13.954-8.5A43.9,43.9,0,0,0,65.512-82.251Zm0,94.619a46.348,46.348,0,0,0,16.547-2.96A47.182,47.182,0,0,0,96.144,1.088a48.186,48.186,0,0,0,10.41-12.495,46.1,46.1,0,0,0,5.581-15.486h8.275a2.019,2.019,0,0,0,1.2-.315,1.052,1.052,0,0,0,.439-.911,2.1,2.1,0,0,0-.564-1.288L111.442-43.87a1.875,1.875,0,0,0-1.444-.94,1.729,1.729,0,0,0-1.381.94l-10.1,14.4a2.514,2.514,0,0,0-.5,1.349,1.081,1.081,0,0,0,.409.911,1.991,1.991,0,0,0,1.226.315h10.069A44.1,44.1,0,0,1,101.5-8.1,45.743,45.743,0,0,1,85.869,5.1,43.474,43.474,0,0,1,65.512,9.952a42.484,42.484,0,0,1-22.743-6.31A48.069,48.069,0,0,1,26.492-12.743a1.168,1.168,0,0,0-.733-.572,1.362,1.362,0,0,0-.921.067,1.153,1.153,0,0,0-.571.732,1.222,1.222,0,0,0,.193.985A56.957,56.957,0,0,0,35.116.793,48.508,48.508,0,0,0,49.07,9.288,43.973,43.973,0,0,0,65.512,12.368Z" fill="#4d4d4d"/>
    </g>
    <g id="Black-S" transform="translate(2876.14 696)">
      <path id="路径_46" data-name="路径 46" d="M57.235-76.947A40.793,40.793,0,0,0,43.172-74.53a42.575,42.575,0,0,0-12.085,6.763,42.413,42.413,0,0,0-9.229,10.205A40.99,40.99,0,0,0,16.414-44.77H11.092a3.914,3.914,0,0,0-3.076,1.147,3.814,3.814,0,0,0-.977,2.759,5.19,5.19,0,0,0,1.123,3.027L21-21.527a3.474,3.474,0,0,0,2.832,1.318,3.338,3.338,0,0,0,2.783-1.318L39.412-37.836a4.974,4.974,0,0,0,1.123-2.979,3.951,3.951,0,0,0-.952-2.783,3.794,3.794,0,0,0-3.052-1.172H31.16A27.593,27.593,0,0,1,37.02-54.1a28.271,28.271,0,0,1,9.058-6.372,27.078,27.078,0,0,1,11.157-2.319,26.647,26.647,0,0,1,10.034,1.856,30.653,30.653,0,0,1,8.667,5.371A10.65,10.65,0,0,0,81.4-52.973a5.986,5.986,0,0,0,5.322-1.9,6.348,6.348,0,0,0,1.953-5A9.177,9.177,0,0,0,85.9-65.619a28.164,28.164,0,0,0-7.861-5.933,47.111,47.111,0,0,0-10.3-3.979A41.859,41.859,0,0,0,57.235-76.947Zm0,83.984A41,41,0,0,0,71.322,4.62,42.138,42.138,0,0,0,83.407-2.143a42.653,42.653,0,0,0,9.2-10.205,40.989,40.989,0,0,0,5.444-12.793h5.322a3.981,3.981,0,0,0,3.125-1.147,3.847,3.847,0,0,0,.976-2.783,4.861,4.861,0,0,0-1.171-3L93.465-48.383A3.338,3.338,0,0,0,90.682-49.7a3.474,3.474,0,0,0-2.832,1.318L75.057-32.074a4.844,4.844,0,0,0-1.1,2.979,4.107,4.107,0,0,0,.952,2.783,3.718,3.718,0,0,0,3.027,1.172h5.371A27.857,27.857,0,0,1,77.45-15.79a27.846,27.846,0,0,1-9.033,6.372A27.273,27.273,0,0,1,57.235-7.123a26.461,26.461,0,0,1-10.01-1.855,31.467,31.467,0,0,1-8.691-5.371,10.387,10.387,0,0,0-5.42-2.588,6.107,6.107,0,0,0-5.371,1.9,6.389,6.389,0,0,0-1.9,4.981,9.437,9.437,0,0,0,2.734,5.762,28.542,28.542,0,0,0,7.91,5.908A48.808,48.808,0,0,0,46.785,5.6,41.025,41.025,0,0,0,57.235,7.037Z" fill="#4d4d4d"/>
    </g>
    <g id="Heavy-S" transform="translate(2580.21 696)">
      <path id="路径_48" data-name="路径 48" d="M56.451-76.348a40.126,40.126,0,0,0-13.93,2.417,41.929,41.929,0,0,0-11.97,6.757,41.935,41.935,0,0,0-9.1,10.182,40.264,40.264,0,0,0-5.3,12.73h-5.3a3.791,3.791,0,0,0-2.892,1.026,3.33,3.33,0,0,0-.919,2.494A4.941,4.941,0,0,0,8.1-37.917L19.967-22.542A3.322,3.322,0,0,0,22.69-21.2a3.222,3.222,0,0,0,2.685-1.341L37.2-37.928a4.7,4.7,0,0,0,1.054-2.783,3.471,3.471,0,0,0-.906-2.507,3.672,3.672,0,0,0-2.867-1.045H29.2a28.225,28.225,0,0,1,5.923-10.07,29.142,29.142,0,0,1,9.5-6.914,28.027,28.027,0,0,1,11.831-2.521A27.658,27.658,0,0,1,67.54-61.542a30.2,30.2,0,0,1,9.2,6.258A9.109,9.109,0,0,0,81.5-52.9a5.384,5.384,0,0,0,4.734-1.576A5.618,5.618,0,0,0,88.1-58.862a7.8,7.8,0,0,0-2.328-5.1,30.7,30.7,0,0,0-8.029-6.492,44.808,44.808,0,0,0-10.4-4.348A40.4,40.4,0,0,0,56.451-76.348Zm0,82.763A40.267,40.267,0,0,0,70.406,4,41.615,41.615,0,0,0,82.369-2.759a42.117,42.117,0,0,0,9.083-10.182,40.466,40.466,0,0,0,5.312-12.729h5.288a3.84,3.84,0,0,0,2.935-1.027,3.381,3.381,0,0,0,.918-2.512,4.648,4.648,0,0,0-1.1-2.807L92.947-47.392a3.228,3.228,0,0,0-2.7-1.347,3.338,3.338,0,0,0-2.723,1.347L75.7-32.005a4.66,4.66,0,0,0-1.029,2.783,3.559,3.559,0,0,0,.9,2.507,3.611,3.611,0,0,0,2.849,1.045h5.29a28.61,28.61,0,0,1-5.934,10.094A28.8,28.8,0,0,1,68.3-8.657a28.166,28.166,0,0,1-11.85,2.5,27.435,27.435,0,0,1-11.058-2.23,30.977,30.977,0,0,1-9.233-6.264,8.857,8.857,0,0,0-4.711-2.386,5.456,5.456,0,0,0-4.766,1.576,5.63,5.63,0,0,0-1.841,4.37,7.984,7.984,0,0,0,2.291,5.116A31.2,31.2,0,0,0,35.209.5,45.939,45.939,0,0,0,45.6,4.848,39.768,39.768,0,0,0,56.451,6.415Z" fill="#4d4d4d"/>
    </g>
    <g id="Bold-S" transform="translate(2284.38 696)">
      <path id="路径_50" data-name="路径 50" d="M55.575-75.678a39.385,39.385,0,0,0-13.782,2.417A41.209,41.209,0,0,0,29.952-66.51a41.4,41.4,0,0,0-8.96,10.156A39.461,39.461,0,0,0,15.853-43.7H10.58a3.675,3.675,0,0,0-2.686.891,2.807,2.807,0,0,0-.854,2.2,4.673,4.673,0,0,0,1,2.6L18.807-23.676a3.168,3.168,0,0,0,2.6,1.367,3.1,3.1,0,0,0,2.576-1.367L34.725-38.031a4.394,4.394,0,0,0,.977-2.564,2.948,2.948,0,0,0-.854-2.2,3.558,3.558,0,0,0-2.661-.9H27.01A29.038,29.038,0,0,1,33-54.6a30.175,30.175,0,0,1,9.985-7.52,29.126,29.126,0,0,1,12.585-2.747,29.034,29.034,0,0,1,12.268,2.637,30.126,30.126,0,0,1,9.8,7.251A7.424,7.424,0,0,0,81.6-52.814a4.721,4.721,0,0,0,4.077-1.208,4.8,4.8,0,0,0,1.77-3.7A6.311,6.311,0,0,0,85.629-62.1a34.024,34.024,0,0,0-8.215-7.117A42.789,42.789,0,0,0,66.9-73.981,39.133,39.133,0,0,0,55.575-75.678Zm0,81.4A39.456,39.456,0,0,0,69.381,3.3,41.04,41.04,0,0,0,81.21-3.449,41.523,41.523,0,0,0,90.157-13.6a39.881,39.881,0,0,0,5.164-12.659h5.249a3.7,3.7,0,0,0,2.722-.891,2.878,2.878,0,0,0,.854-2.209,4.422,4.422,0,0,0-1.012-2.588L92.367-46.283a3.118,3.118,0,0,0-2.6-1.379,3.2,3.2,0,0,0-2.6,1.379L76.424-31.928a4.467,4.467,0,0,0-.952,2.563,2.97,2.97,0,0,0,.842,2.2,3.515,3.515,0,0,0,2.649.9h5.2a29.548,29.548,0,0,1-6.018,10.925,29.918,29.918,0,0,1-9.973,7.532,29.212,29.212,0,0,1-12.6,2.734A28.782,28.782,0,0,1,43.343-7.721,30.865,30.865,0,0,1,33.5-14.984a7.184,7.184,0,0,0-3.918-2.161A4.739,4.739,0,0,0,25.5-15.936a4.788,4.788,0,0,0-1.77,3.686,6.42,6.42,0,0,0,1.794,4.395,34.688,34.688,0,0,0,8.264,7.1,43.458,43.458,0,0,0,10.5,4.761A38.675,38.675,0,0,0,55.575,5.719Z" fill="#4d4d4d"/>
    </g>
    <g id="Semibold-S" transform="translate(1988.28 696)">
      <path id="路径_52" data-name="路径 52" d="M54.971-75.216A38.879,38.879,0,0,0,41.291-72.8a40.72,40.72,0,0,0-11.752,6.746,41.04,41.04,0,0,0-8.862,10.138A38.91,38.91,0,0,0,15.649-43.3H10.393a3.615,3.615,0,0,0-2.543.8,2.46,2.46,0,0,0-.81,1.993A4.5,4.5,0,0,0,8-38.069L18.007-24.458a3.07,3.07,0,0,0,2.516,1.385,3.031,3.031,0,0,0,2.5-1.385l10-13.645a4.183,4.183,0,0,0,.923-2.412,2.6,2.6,0,0,0-.819-1.984A3.5,3.5,0,0,0,30.6-43.3H25.5a29.652,29.652,0,0,1,6.043-11.474,30.919,30.919,0,0,1,10.323-7.937,29.9,29.9,0,0,1,13.105-2.9A30.081,30.081,0,0,1,68.052-62.7a30.273,30.273,0,0,1,10.215,7.935,6.3,6.3,0,0,0,3.4,2.005,4.275,4.275,0,0,0,3.624-.955A4.236,4.236,0,0,0,87-56.935a5.326,5.326,0,0,0-1.468-3.889,36.635,36.635,0,0,0-8.344-7.548A41.674,41.674,0,0,0,66.6-73.417,38.436,38.436,0,0,0,54.971-75.216Zm0,80.454a38.9,38.9,0,0,0,13.7-2.417A40.643,40.643,0,0,0,80.41-3.924a41.115,41.115,0,0,0,8.854-10.139,39.479,39.479,0,0,0,5.061-12.61h5.222a3.631,3.631,0,0,0,2.576-.8,2.538,2.538,0,0,0,.809-2,4.261,4.261,0,0,0-.955-2.437L91.967-45.519a3.05,3.05,0,0,0-2.533-1.4,3.117,3.117,0,0,0-2.516,1.4l-10,13.645a4.343,4.343,0,0,0-.9,2.412,2.582,2.582,0,0,0,.8,1.984,3.472,3.472,0,0,0,2.511.806h5.138a30.24,30.24,0,0,1-6.076,11.5A30.711,30.711,0,0,1,68.084-7.22,29.954,29.954,0,0,1,54.971-4.326a29.812,29.812,0,0,1-13.04-2.938,30.992,30.992,0,0,1-10.257-7.952A6.065,6.065,0,0,0,28.3-17.221a4.254,4.254,0,0,0-3.623.955,4.212,4.212,0,0,0-1.721,3.216,5.391,5.391,0,0,0,1.452,3.9A37.436,37.436,0,0,0,32.8-1.613,42.093,42.093,0,0,0,43.373,3.432,38.074,38.074,0,0,0,54.971,5.239Z" fill="#4d4d4d"/>
    </g>
    <g id="Medium-S" transform="translate(1692.03 696)">
      <path id="路径_54" data-name="路径 54" d="M54.513-74.865a38.5,38.5,0,0,0-13.6,2.417,40.35,40.35,0,0,0-11.685,6.743,40.766,40.766,0,0,0-8.788,10.125,38.494,38.494,0,0,0-4.944,12.573H10.252a3.584,3.584,0,0,0-2.436.727,2.2,2.2,0,0,0-.776,1.838,4.365,4.365,0,0,0,.923,2.327L17.4-25.051a3,3,0,0,0,2.452,1.4,2.979,2.979,0,0,0,2.443-1.4l9.43-13.105a4.022,4.022,0,0,0,.883-2.3,2.339,2.339,0,0,0-.792-1.822,3.472,3.472,0,0,0-2.411-.731H24.354a30.141,30.141,0,0,1,6.08-11.909A31.494,31.494,0,0,1,41.013-63.17a30.5,30.5,0,0,1,13.5-3.02,30.914,30.914,0,0,1,13.7,3.137A30.472,30.472,0,0,1,78.739-54.6a5.464,5.464,0,0,0,2.986,1.887,3.945,3.945,0,0,0,3.28-.763,3.81,3.81,0,0,0,1.653-2.863,4.609,4.609,0,0,0-1.2-3.515,38.8,38.8,0,0,0-8.442-7.875,40.941,40.941,0,0,0-10.643-5.261A37.982,37.982,0,0,0,54.513-74.865Zm0,79.74A38.484,38.484,0,0,0,68.139,2.458,40.344,40.344,0,0,0,79.8-4.285,40.807,40.807,0,0,0,88.587-14.41a39.174,39.174,0,0,0,4.984-12.573h5.2a3.588,3.588,0,0,0,2.465-.727,2.288,2.288,0,0,0,.776-1.842,4.158,4.158,0,0,0-.912-2.322L91.664-44.939a3,3,0,0,0-2.483-1.418,3.059,3.059,0,0,0-2.452,1.418L77.3-31.834a4.255,4.255,0,0,0-.858,2.3,2.3,2.3,0,0,0,.772,1.822,3.455,3.455,0,0,0,2.407.731h5.091a30.784,30.784,0,0,1-6.12,11.933A31.321,31.321,0,0,1,68.016-6.775a30.527,30.527,0,0,1-13.5,3.016A30.633,30.633,0,0,1,40.859-6.917a31.174,31.174,0,0,1-10.573-8.474,5.242,5.242,0,0,0-2.957-1.887,3.9,3.9,0,0,0-3.269.763,3.779,3.779,0,0,0-1.684,2.858,4.644,4.644,0,0,0,1.193,3.52,39.718,39.718,0,0,0,8.491,7.87A41.209,41.209,0,0,0,42.682,2.994,37.687,37.687,0,0,0,54.513,4.875Z" fill="#4d4d4d"/>
    </g>
    <g id="Regular-S" transform="translate(1395.91 696)">
      <path id="路径_56" data-name="路径 56" d="M53.915-74.408a38,38,0,0,0-13.5,2.417,39.87,39.87,0,0,0-11.6,6.738,40.41,40.41,0,0,0-8.691,10.107,37.958,37.958,0,0,0-4.834,12.524H10.067a3.571,3.571,0,0,0-2.295.635,1.883,1.883,0,0,0-.732,1.636,4.207,4.207,0,0,0,.879,2.173L16.61-25.824a2.918,2.918,0,0,0,2.368,1.416,2.918,2.918,0,0,0,2.368-1.416l8.691-12.4a3.817,3.817,0,0,0,.83-2.148,2.012,2.012,0,0,0-.757-1.611,3.466,3.466,0,0,0-2.271-.635H22.86A30.806,30.806,0,0,1,28.988-55.1,32.261,32.261,0,0,1,39.9-63.764a31.287,31.287,0,0,1,14.014-3.174,32.038,32.038,0,0,1,14.5,3.418,30.816,30.816,0,0,1,10.938,9.131A4.423,4.423,0,0,0,81.8-52.655a3.529,3.529,0,0,0,2.832-.513,3.256,3.256,0,0,0,1.587-2.393,3.724,3.724,0,0,0-.854-3.027,41.881,41.881,0,0,0-8.569-8.3,40.126,40.126,0,0,0-10.718-5.542A37.476,37.476,0,0,0,53.915-74.408Zm0,78.809A37.942,37.942,0,0,0,67.44,1.983,39.957,39.957,0,0,0,79.013-4.755,40.41,40.41,0,0,0,87.7-14.862a38.781,38.781,0,0,0,4.883-12.524h5.176a3.555,3.555,0,0,0,2.319-.635,1.968,1.968,0,0,0,.732-1.636,4.013,4.013,0,0,0-.854-2.173L91.269-44.184a2.949,2.949,0,0,0-2.417-1.44,2.99,2.99,0,0,0-2.368,1.44l-8.691,12.4a4.154,4.154,0,0,0-.806,2.148,1.944,1.944,0,0,0,.732,1.611,3.467,3.467,0,0,0,2.271.635h5.029a31.522,31.522,0,0,1-6.177,12.5A32.131,32.131,0,0,1,67.929-6.2,31.287,31.287,0,0,1,53.915-3.021,31.745,31.745,0,0,1,39.462-6.464a31.505,31.505,0,0,1-10.986-9.155,4.212,4.212,0,0,0-2.417-1.733,3.442,3.442,0,0,0-2.808.513,3.225,3.225,0,0,0-1.636,2.392,3.725,3.725,0,0,0,.854,3.027,42.977,42.977,0,0,0,8.618,8.3A40.224,40.224,0,0,0,41.781,2.423,37.258,37.258,0,0,0,53.915,4.4Z" fill="#4d4d4d"/>
    </g>
    <g id="Light-S" transform="translate(1100 696)">
      <path id="路径_58" data-name="路径 58" d="M53.112-73.682a37.419,37.419,0,0,0-13.327,2.387,38.984,38.984,0,0,0-11.415,6.67,39.708,39.708,0,0,0-8.533,10.009,37.284,37.284,0,0,0-4.7,12.4h-5.6a2.948,2.948,0,0,0-1.871.514,1.554,1.554,0,0,0-.611,1.348,3.435,3.435,0,0,0,.728,1.81l8.449,12.036A2.427,2.427,0,0,0,18.2-25.3a2.463,2.463,0,0,0,1.982-1.2L28.615-38.56a3.2,3.2,0,0,0,.709-1.808A1.64,1.64,0,0,0,28.7-41.7a2.875,2.875,0,0,0-1.854-.514H20.952a31.806,31.806,0,0,1,6.211-13.179,33.367,33.367,0,0,1,11.329-9.189,32.137,32.137,0,0,1,14.619-3.371,32.216,32.216,0,0,1,15.547,3.895A32.873,32.873,0,0,1,80.171-53.768a3.322,3.322,0,0,0,1.859,1.332A2.746,2.746,0,0,0,84.2-52.8a2.528,2.528,0,0,0,1.216-1.825,2.887,2.887,0,0,0-.62-2.324,42.584,42.584,0,0,0-8.509-8.725A39.471,39.471,0,0,0,65.5-71.568,36.346,36.346,0,0,0,53.112-73.682Zm0,77.355A37.437,37.437,0,0,0,66.463,1.287a39.017,39.017,0,0,0,11.406-6.67,39.578,39.578,0,0,0,8.525-10.009,37.936,37.936,0,0,0,4.724-12.4H96.7a2.936,2.936,0,0,0,1.888-.514,1.61,1.61,0,0,0,.611-1.348,3.265,3.265,0,0,0-.726-1.81L90.041-43.5a2.485,2.485,0,0,0-2.016-1.221A2.476,2.476,0,0,0,86.059-43.5L77.609-31.448a3.472,3.472,0,0,0-.677,1.808,1.6,1.6,0,0,0,.6,1.331A2.869,2.869,0,0,0,79.4-27.8h5.923a32.439,32.439,0,0,1-6.26,13.2A33.279,33.279,0,0,1,67.731-5.393,32.137,32.137,0,0,1,53.112-2.023,31.991,31.991,0,0,1,37.607-5.934,33.356,33.356,0,0,1,26.068-16.24a3.18,3.18,0,0,0-1.842-1.332,2.685,2.685,0,0,0-2.157.369A2.5,2.5,0,0,0,20.8-15.378a2.862,2.862,0,0,0,.635,2.324A43.445,43.445,0,0,0,29.975-4.33,39.392,39.392,0,0,0,40.743,1.56,36.224,36.224,0,0,0,53.112,3.674Z" fill="#4d4d4d"/>
    </g>
    <g id="Thin-S" transform="translate(804.351 696)">
      <path id="路径_60" data-name="路径 60" d="M52.05-72.721a36.645,36.645,0,0,0-13.1,2.347,37.823,37.823,0,0,0-11.175,6.58,38.785,38.785,0,0,0-8.322,9.879,36.4,36.4,0,0,0-4.518,12.243h-6.1a2.124,2.124,0,0,0-1.31.354,1.117,1.117,0,0,0-.451.968A2.421,2.421,0,0,0,7.6-39.021l8.129,11.615a1.782,1.782,0,0,0,1.437.923,1.865,1.865,0,0,0,1.471-.923L26.732-39a2.382,2.382,0,0,0,.548-1.357,1.149,1.149,0,0,0-.458-.961,2.094,2.094,0,0,0-1.3-.354h-7.09a33.164,33.164,0,0,1,6.321-14.11,34.853,34.853,0,0,1,11.88-9.88,33.287,33.287,0,0,1,15.42-3.631,32.841,32.841,0,0,1,16.928,4.525,35.68,35.68,0,0,1,12.274,11.82,1.87,1.87,0,0,0,1.088.8,1.719,1.719,0,0,0,1.3-.179,1.57,1.57,0,0,0,.726-1.074,1.786,1.786,0,0,0-.31-1.393,43.585,43.585,0,0,0-8.429-9.285,38.8,38.8,0,0,0-10.876-6.351A35.1,35.1,0,0,0,52.05-72.721Zm0,75.434A36.768,36.768,0,0,0,65.171.366a37.788,37.788,0,0,0,11.185-6.58,38.485,38.485,0,0,0,8.3-9.879,36.844,36.844,0,0,0,4.514-12.243H95.3a2.12,2.12,0,0,0,1.318-.354,1.138,1.138,0,0,0,.451-.968,2.287,2.287,0,0,0-.555-1.329L88.419-42.6a1.874,1.874,0,0,0-1.485-.93,1.8,1.8,0,0,0-1.436.93L77.368-31.008a2.571,2.571,0,0,0-.507,1.358,1.149,1.149,0,0,0,.434.961,2.082,2.082,0,0,0,1.321.354h7.1a33.7,33.7,0,0,1-6.37,14.117A34.815,34.815,0,0,1,67.47-4.332,33.289,33.289,0,0,1,52.05-.7a32.68,32.68,0,0,1-16.9-4.532A35.913,35.913,0,0,1,22.884-17.06a1.817,1.817,0,0,0-1.081-.8,1.694,1.694,0,0,0-1.3.179,1.535,1.535,0,0,0-.774,1.074,1.721,1.721,0,0,0,.344,1.393A44.134,44.134,0,0,0,28.5-5.932,38.5,38.5,0,0,0,39.371.419,35.093,35.093,0,0,0,52.05,2.713Z" fill="#4d4d4d"/>
    </g>
    <g id="Ultralight-S" transform="translate(508.182 696)">
      <path id="路径_62" data-name="路径 62" d="M51.506-72.229A36.25,36.25,0,0,0,38.527-69.9a37.232,37.232,0,0,0-11.052,6.534,38.312,38.312,0,0,0-8.215,9.812A35.958,35.958,0,0,0,14.835-41.4H8.475a1.7,1.7,0,0,0-1.023.272.892.892,0,0,0-.369.773,1.907,1.907,0,0,0,.425,1.083l7.964,11.4a1.454,1.454,0,0,0,1.165.78,1.561,1.561,0,0,0,1.21-.78l7.92-11.358a1.966,1.966,0,0,0,.466-1.127.9.9,0,0,0-.371-.771,1.7,1.7,0,0,0-1.022-.272h-7.7a33.872,33.872,0,0,1,6.378-14.587A35.621,35.621,0,0,1,35.676-66.216a33.886,33.886,0,0,1,15.83-3.764,33.28,33.28,0,0,1,17.635,4.849A37.151,37.151,0,0,1,81.8-52.527,1.134,1.134,0,0,0,82.5-52a1.212,1.212,0,0,0,.857-.082,1.09,1.09,0,0,0,.474-.689,1.23,1.23,0,0,0-.151-.916,44.123,44.123,0,0,0-8.388-9.572,38.531,38.531,0,0,0-10.922-6.586A34.558,34.558,0,0,0,51.506-72.229Zm0,74.449a36.426,36.426,0,0,0,13-2.326A37.163,37.163,0,0,0,75.581-6.639a37.928,37.928,0,0,0,8.192-9.812A36.292,36.292,0,0,0,88.18-28.613h6.4a1.705,1.705,0,0,0,1.025-.272.9.9,0,0,0,.369-.773,1.8,1.8,0,0,0-.468-1.083l-7.92-11.4a1.563,1.563,0,0,0-1.213-.782,1.458,1.458,0,0,0-1.165.782L77.244-30.783a2.109,2.109,0,0,0-.42,1.127.917.917,0,0,0,.347.771,1.681,1.681,0,0,0,1.044.272h7.709A34.359,34.359,0,0,1,79.5-14.024,35.608,35.608,0,0,1,67.336-3.789,33.889,33.889,0,0,1,51.506-.025,33.143,33.143,0,0,1,33.9-4.874,37.261,37.261,0,0,1,21.253-17.481a1.123,1.123,0,0,0-.692-.53,1.205,1.205,0,0,0-.855.082,1.048,1.048,0,0,0-.523.689,1.135,1.135,0,0,0,.2.916,44.518,44.518,0,0,0,8.369,9.572A38.12,38.12,0,0,0,38.668-.165,34.6,34.6,0,0,0,51.506,2.221Z" fill="#4d4d4d"/>
    </g>
  </g>
</svg>
